<?xml version="1.0" standalone="no"?>
<!DOCTYPE svg PUBLIC "-//W3C//DTD SVG 20010904//EN"
 "http://www.w3.org/TR/2001/REC-SVG-20010904/DTD/svg10.dtd">
<svg version="1.0" xmlns="http://www.w3.org/2000/svg"
 width="119.000000pt" height="119.000000pt" viewBox="0 0 119.000000 119.000000"
 preserveAspectRatio="xMidYMid meet">
<metadata>
Created by potrace 1.14, written by Peter Selinger 2001-2017
</metadata>
<g transform="translate(0.000000,119.000000) scale(0.100000,-0.100000)"
fill="#000000" stroke="none">
<path d="M0 935 c0 -7 7 -18 15 -25 9 -7 13 -15 10 -18 -3 -3 0 -11 6 -19 6
-7 8 -13 3 -13 -5 0 -3 -4 4 -9 7 -4 14 -18 15 -29 1 -12 5 -22 9 -22 4 0 8
-9 8 -19 0 -11 5 -23 11 -26 6 -4 8 -13 5 -20 -3 -8 0 -15 5 -17 6 -2 11 -10
12 -18 2 -8 6 -21 10 -27 5 -7 5 -13 2 -13 -4 0 1 -7 9 -16 9 -8 13 -20 10
-26 -4 -6 -2 -13 4 -17 7 -4 13 -16 15 -26 2 -11 9 -31 17 -45 8 -14 13 -31
11 -39 -1 -8 2 -10 10 -5 8 4 10 3 5 -4 -4 -6 -3 -19 2 -29 6 -10 14 -29 20
-43 5 -14 18 -42 27 -64 9 -21 18 -44 20 -50 8 -40 18 -46 70 -46 63 0 85 7
85 26 0 8 4 14 8 14 5 0 9 7 10 15 1 8 3 22 4 30 1 8 5 15 10 15 4 0 7 3 6 8
-1 4 3 16 9 27 6 11 11 22 11 25 0 3 5 16 10 30 5 14 9 28 8 31 0 4 7 16 17
26 9 11 14 23 10 27 -4 4 -2 10 5 14 6 5 13 17 15 27 1 11 10 35 20 54 9 19
17 40 17 48 0 7 5 13 11 13 5 0 8 3 6 8 -3 4 3 25 14 46 10 22 19 45 19 52 0
6 8 15 18 19 27 12 102 12 102 0 0 -5 4 -4 9 3 4 8 12 14 16 14 4 0 12 -6 16
-14 5 -7 9 -8 9 -3 0 6 36 10 89 10 49 0 87 -3 84 -7 -2 -5 2 -8 9 -8 7 0 5
-5 -6 -11 -26 -16 -55 -46 -49 -52 2 -3 -5 -10 -16 -16 -40 -22 -14 -36 60
-34 39 1 77 4 85 7 8 3 14 0 14 -7 0 -7 4 -6 10 3 13 21 61 79 88 107 13 12
19 23 13 23 -10 0 -9 25 2 36 4 4 1 14 -6 22 -9 12 -9 16 0 19 7 3 13 9 13 14
0 6 -6 7 -12 3 -10 -6 -10 -4 0 8 10 13 10 17 -4 22 -8 3 -157 6 -329 6 l-313
0 -11 -30 c-5 -17 -9 -32 -8 -34 1 -1 -4 -10 -11 -19 -8 -9 -11 -21 -7 -27 3
-5 1 -10 -5 -10 -6 0 -8 -4 -5 -10 3 -5 1 -10 -6 -10 -7 0 -9 -3 -6 -7 4 -3 3
-11 -1 -17 -5 -6 -19 -40 -32 -76 -13 -36 -28 -71 -33 -77 -5 -7 -7 -13 -4
-13 3 0 0 -12 -8 -27 -8 -15 -12 -30 -9 -35 3 -4 1 -8 -4 -8 -5 0 -12 -15 -16
-32 -5 -25 -9 -29 -16 -18 -5 8 -6 18 -4 22 3 4 0 8 -5 8 -6 0 -11 10 -11 23
0 13 -5 28 -11 34 -6 6 -12 17 -13 24 -4 17 -14 45 -28 79 -6 14 -13 34 -15
45 -2 10 -8 22 -14 26 -6 3 -10 8 -8 10 3 5 -19 73 -36 114 -7 17 -16 38 -19
48 -5 16 -17 18 -96 16 -64 -1 -90 -5 -90 -14z"/>
<path d="M729 501 c-16 -7 -27 -16 -26 -20 1 -3 -15 -24 -36 -46 -36 -39 -37
-43 -37 -112 l0 -73 280 0 281 0 -3 72 c-3 66 -5 72 -25 73 -13 1 -23 -2 -23
-6 0 -5 -6 -6 -12 -4 -27 10 -78 12 -78 3 0 -5 -5 -6 -12 -2 -17 11 -138 11
-138 0 0 -5 -6 -4 -12 1 -7 5 -23 8 -35 7 -14 -1 -20 3 -16 9 11 17 46 58 73
84 14 13 21 23 15 22 -5 -1 -12 0 -15 1 -22 9 -158 3 -181 -9z"/>
</g>
</svg>
