<svg version="1.0" xmlns="http://www.w3.org/2000/svg" width="158.667" height="158.667" viewBox="0 0 119 119"><path d="M0 25.5c0 .7.7 1.8 1.5 2.5.9.7 1.3 1.5 1 1.8-.3.3 0 1.1.6 1.9.6.7.8 1.3.3 1.3s-.3.4.4.9c.7.4 1.4 1.8 1.5 2.9.1 1.2.5 2.2.9 2.2s.8.9.8 1.9c0 1.1.5 2.3 1.1 2.6.6.4.8 1.3.5 2-.3.8 0 1.5.5 1.7.6.2 1.1 1 1.2 1.8.2.8.6 2.1 1 2.7.5.7.5 1.3.2 1.3-.4 0 .1.7.9 1.6.9.8 1.3 2 1 2.6-.4.6-.2 1.3.4 1.7.7.4 1.3 1.6 1.5 2.6.2 1.1.9 3.1 1.7 4.5.8 1.4 1.3 3.1 1.1 3.9-.1.8.2 1 1 .5.8-.4 1-.3.5.4-.4.6-.3 1.9.2 2.9.6 1 1.4 2.9 2 4.3.5 1.4 1.8 4.2 2.7 6.4.9 2.1 1.8 4.4 2 5 .8 4 1.8 4.6 7 4.6 6.3 0 8.5-.7 8.5-2.6 0-.8.4-1.4.8-1.4.5 0 .9-.7 1-1.5.1-.8.3-2.2.4-3 .1-.8.5-1.5 1-1.5.4 0 .7-.3.6-.8-.1-.4.3-1.6.9-2.7.6-1.1 1.1-2.2 1.1-2.5 0-.3.5-1.6 1-3s.9-2.8.8-3.1c0-.4.7-1.6 1.7-2.6.9-1.1 1.4-2.3 1-2.7-.4-.4-.2-1 .5-1.4.6-.5 1.3-1.7 1.5-2.7.1-1.1 1-3.5 2-5.4.9-1.9 1.7-4 1.7-4.8 0-.7.5-1.3 1.1-1.3.5 0 .8-.3.6-.8-.3-.4.3-2.5 1.4-4.6 1-2.2 1.9-4.5 1.9-5.2 0-.6.8-1.5 1.8-1.9 2.7-1.2 10.2-1.2 10.2 0 0 .5.4.4.9-.3.4-.8 1.2-1.4 1.6-1.4.4 0 1.2.6 1.6 1.4.5.7.9.8.9.3 0-.6 3.6-1 8.9-1 4.9 0 8.7.3 8.4.7-.2.5.2.8.9.8s.5.5-.6 1.1c-2.6 1.6-5.5 4.6-4.9 5.2.2.3-.5 1-1.6 1.6-4 2.2-1.4 3.6 6 3.4 3.9-.1 7.7-.4 8.5-.7.8-.3 1.4 0 1.4.7s.4.6 1-.3c1.3-2.1 6.1-7.9 8.8-10.7 1.3-1.2 1.9-2.3 1.3-2.3-1 0-.9-2.5.2-3.6.4-.4.1-1.4-.6-2.2-.9-1.2-.9-1.6 0-1.9.7-.3 1.3-.9 1.3-1.4 0-.6-.6-.7-1.2-.3-1 .6-1 .4 0-.8 1-1.3 1-1.7-.4-2.2-.8-.3-15.7-.6-32.9-.6H53.2l-1.1 3c-.5 1.7-.9 3.2-.8 3.4.1.1-.4 1-1.1 1.9-.8.9-1.1 2.1-.7 2.7.3.5.1 1-.5 1s-.8.4-.5 1c.3.5.1 1-.6 1s-.9.3-.6.7c.4.3.3 1.1-.1 1.7-.5.6-1.9 4-3.2 7.6-1.3 3.6-2.8 7.1-3.3 7.7-.5.7-.7 1.3-.4 1.3.3 0 0 1.2-.8 2.7-.8 1.5-1.2 3-.9 3.5.3.4.1.8-.4.8s-1.2 1.5-1.6 3.2c-.5 2.5-.9 2.9-1.6 1.8-.5-.8-.6-1.8-.4-2.2.3-.4 0-.8-.5-.8-.6 0-1.1-1-1.1-2.3 0-1.3-.5-2.8-1.1-3.4-.6-.6-1.2-1.7-1.3-2.4-.4-1.7-1.4-4.5-2.8-7.9-.6-1.4-1.3-3.4-1.5-4.5-.2-1-.8-2.2-1.4-2.6-.6-.3-1-.8-.8-1 .3-.5-1.9-7.3-3.6-11.4-.7-1.7-1.6-3.8-1.9-4.8-.5-1.6-1.7-1.8-9.6-1.6-6.4.1-9 .5-9 1.4z"/><path d="M72.9 68.9c-1.6.7-2.7 1.6-2.6 2 .1.3-1.5 2.4-3.6 4.6-3.6 3.9-3.7 4.3-3.7 11.2V94h56.1l-.3-7.2c-.3-6.6-.5-7.2-2.5-7.3-1.3-.1-2.3.2-2.3.6 0 .5-.6.6-1.2.4-2.7-1-7.8-1.2-7.8-.3 0 .5-.5.6-1.2.2-1.7-1.1-13.8-1.1-13.8 0 0 .5-.6.4-1.2-.1-.7-.5-2.3-.8-3.5-.7-1.4.1-2-.3-1.6-.9 1.1-1.7 4.6-5.8 7.3-8.4 1.4-1.3 2.1-2.3 1.5-2.2-.5.1-1.2 0-1.5-.1-2.2-.9-15.8-.3-18.1.9z"/></svg>